<svg xmlns="http://www.w3.org/2000/svg" viewBox="0 0 320 150" role="img" aria-labelledby="title">
  <title id="title">Economy car</title>
  <defs><linearGradient id="g" x1="0" x2="1"><stop stop-color="#5daf7b"/><stop offset="1" stop-color="#82ca91"/></linearGradient></defs>
  <path fill="#eaf6ea" d="m40 83 29-9 33-34c7-7 16-11 26-11h57c12 0 21 4 29 12l33 34 36 10c8 2 13 9 13 17v11H24V98c0-7 6-13 16-15Z"/>
  <path fill="url(#g)" d="m80 72 32-31c5-4 10-6 17-6h54c7 0 13 2 18 7l29 30H80Z"/>
  <path fill="#cfe8cf" d="m115 41-31 31h70V35h-25c-6 0-10 2-14 6Zm49-6h18c7 0 12 2 17 7l28 30h-63V35Z"/>
  <path fill="#17383d" d="M27 90h269v23H22V97c0-3 2-6 5-7Z"/>
  <circle cx="82" cy="112" r="23" fill="#17383d"/><circle cx="82" cy="112" r="10" fill="#dfe7e4"/>
  <circle cx="239" cy="112" r="23" fill="#17383d"/><circle cx="239" cy="112" r="10" fill="#dfe7e4"/>
  <path fill="#f2a65a" d="M268 83h20v7h-20z"/>
</svg>
