<svg xmlns="http://www.w3.org/2000/svg" viewBox="0 0 320 150" role="img" aria-labelledby="title">
  <title id="title">Pickup</title>
  <defs><linearGradient id="g" x1="0" x2="1"><stop stop-color="#0b7a75"/><stop offset="1" stop-color="#45c5bb"/></linearGradient></defs>
  <path fill="#e8f6f3" d="M30 48h137v63H20V58c0-6 4-10 10-10Zm137 23h80l22 18 27 5v17H167V71Z"/>
  <path fill="url(#g)" d="M37 56h116v42H37z"/>
  <path fill="#cbe9e4" d="M180 47h43c9 0 16 4 22 12l22 30h-87V47Z"/>
  <path fill="#0b7a75" d="M190 57h30c5 0 9 2 13 7l16 21h-59V57Z"/>
  <path fill="#17383d" d="M20 98h278v16H20z"/>
  <circle cx="78" cy="113" r="24" fill="#17383d"/><circle cx="78" cy="113" r="11" fill="#dfe7e4"/>
  <circle cx="246" cy="113" r="24" fill="#17383d"/><circle cx="246" cy="113" r="11" fill="#dfe7e4"/>
  <path fill="#f2a65a" d="M275 91h20v7h-20z"/>
</svg>
